<?xml version="1.0" encoding="utf-8"?>
<!-- Generator: Adobe Illustrator 22.0.1, SVG Export Plug-In . SVG Version: 6.00 Build 0)  -->
<svg version="1.1" id="Layer_1" xmlns="http://www.w3.org/2000/svg" xmlns:xlink="http://www.w3.org/1999/xlink" x="0px" y="0px"
	 viewBox="0 0 30 30" style="enable-background:new 0 0 30 30;" xml:space="preserve">
<style type="text/css">
	.st0{display:none;}
	.st1{display:inline;}
	.st2{fill:#009C66;}
	.st3{fill:#FFFFFF;}
	.st4{fill:#30A2CE;}
	.st5{fill:#3E423E;}
</style>
<g id="Layer_1_1_" class="st0">
	<g class="st1">
		<path class="st2" d="M25.4,0H4.6C2.1,0,0,2.1,0,4.6v20.8C0,27.9,2.1,30,4.6,30h20.9c2.5,0,4.6-2,4.6-4.5V4.6C30,2.1,27.9,0,25.4,0
			z"/>
		<g>
			<ellipse class="st3" cx="16.1" cy="3.9" rx="2" ry="2"/>
			<path class="st3" d="M21.7,13.3l-4.2-2.9c0,0,0.1-2.9-2.1-4.1s-3.8,2.4-3.8,2.4s-1.5,3.2-1.8,4.5c-0.3,1.2,0.7,3.7,0.7,3.7
				l-3.1,9c0,0-0.5,2.1,0.6,2.3c1.8,0.4,5-9.4,5-9.4l2.3,2l1.2,6.4c0,0,0.4,1,1.9,0.9s-0.6-8.5-0.7-8.6s-2.9-4.8-2.9-4.8l1.2-2.6
				l0,0l4.2,2.5c0,0,1.9,1.4,2.6,0.5C23.3,14.1,21.7,13.3,21.7,13.3z"/>
			<path class="st3" d="M20.3,14.1l-6.9,12.1c0,0-0.6,1.1-0.2,1.5s1.4-0.1,2.1-1.2c0.6-1.1,6.2-11.6,6.2-11.6L20.3,14.1z"/>
			<path class="st3" d="M11.3,4.9l1.2,0.6c0.4,0.2,0.5,0.6,0.3,0.9l-2.7,5.9c-0.2,0.3-0.6,0.5-0.9,0.3L8,12.1
				c-0.4-0.2-0.5-0.6-0.3-0.9l2.7-5.9C10.6,4.9,11,4.8,11.3,4.9z"/>
		</g>
	</g>
</g>
<g id="Layer_2_1_" class="st0">
	<g class="st1">
		<path class="st4" d="M25.4,30c2.5,0,4.6-2,4.6-4.5V4.6C30,2.1,27.9,0,25.4,0H14.9v30H25.4z"/>
		<path class="st2" d="M4.6,0C2.1,0,0,2,0,4.5v20.9C0.1,28,2.1,30,4.6,30h10.5V0H4.6z"/>
		<g>
			<ellipse class="st3" cx="16.2" cy="3.9" rx="2" ry="2"/>
			<path class="st3" d="M21.9,13.3l-4.2-2.9c0,0,0.1-2.9-2.2-4.1s-3.8,2.4-3.8,2.4s-1.5,3.2-1.8,4.5s0.7,3.7,0.7,3.7l-3.1,9
				c0,0-0.5,2.1,0.6,2.3c1.8,0.4,5-9.4,5-9.4l2.3,2l1.3,6.4c0,0,0.4,1,1.9,0.9c1.4-0.1-0.6-8.5-0.7-8.6S15,14.7,15,14.7l1-2.7l0,0
				l4.2,2.5c0,0,1.9,1.4,2.6,0.5C23.4,14.2,21.9,13.3,21.9,13.3z"/>
			<path class="st3" d="M20.5,14.1l-6.9,12.1c0,0-0.6,1.1-0.2,1.5s1.4-0.1,2.1-1.2c0.6-1.1,6.3-11.7,6.3-11.7L20.5,14.1z"/>
			<path class="st3" d="M11.9,5.2l0.3,0.1c0.6,0.3,0.9,1,0.6,1.6l-2.3,4.9c-0.3,0.6-1,0.9-1.6,0.6l-0.3-0.1C8,12,7.7,11.3,8,10.7
				l2.3-4.9C10.6,5.2,11.3,4.9,11.9,5.2z"/>
		</g>
	</g>
</g>
<g id="Layer_3" class="st0">
	<g class="st1">
		<path class="st4" d="M25.4,0H4.6C2.1,0,0,2.1,0,4.6v20.9C0,27.9,2.1,30,4.6,30h20.9c2.5,0,4.6-2.1,4.6-4.6V4.6
			C30,2.1,27.9,0,25.4,0z"/>
		<g>
			<circle class="st3" cx="16.1" cy="3.8" r="2"/>
			<path class="st3" d="M21.7,13.3l-4.2-2.9c0,0,0.1-2.9-2.1-4.1s-3.8,2.4-3.8,2.4s-1.5,3.2-1.8,4.5c-0.3,1.2,0.7,3.7,0.7,3.7
				l-3.1,9c0,0-0.5,2.1,0.6,2.4c1.8,0.4,5-9.4,5-9.4l2.3,2l1.2,6.4c0,0,0.4,1,1.9,0.9c1.4-0.1-0.6-8.5-0.7-8.6s-2.9-4.8-2.9-4.8
				l1.2-2.6l0,0l4.2,2.5c0,0,1.9,1.4,2.6,0.5C23.3,14.1,21.7,13.3,21.7,13.3z"/>
			<path class="st3" d="M20.3,14.1l-6.9,12.1c0,0-0.6,1.1-0.2,1.5s1.4-0.1,2.1-1.2c0.6-1.1,6.2-11.7,6.2-11.7L20.3,14.1z"/>
			<path class="st3" d="M11.9,5.2L11.9,5.2c0.7,0.3,1,1.1,0.7,1.8l-2.1,4.7c-0.3,0.7-1.1,1-1.8,0.7l0,0c-0.7-0.3-1-1.1-0.7-1.8
				l2.1-4.7C10.4,5.2,11.3,4.9,11.9,5.2z"/>
		</g>
	</g>
</g>
<g id="Layer_4" class="st0">
	<g class="st1">
		<path class="st5" d="M25.4,30c2.5,0,4.6-2.1,4.6-4.6V4.6C30,2.1,27.9,0,25.4,0H14.9v30H25.4z"/>
		<path class="st4" d="M4.6,0C2.1,0,0,2.1,0,4.6v20.9C0,27.9,2.1,30,4.6,30h10.5V0H4.6z"/>
		<g>
			<ellipse class="st3" cx="16.2" cy="3.8" rx="2" ry="2"/>
			<path class="st3" d="M21.8,13.3l-4.2-2.9c0,0,0.1-2.9-2.2-4.1s-3.8,2.4-3.8,2.4s-1.5,3.2-1.8,4.5s0.7,3.7,0.7,3.7l-3.1,9
				c0,0-0.5,2.1,0.6,2.4c1.8,0.4,5-9.4,5-9.4l2.3,2l1.3,6.4c0,0,0.4,1,1.9,0.9c1.4-0.1-0.6-8.5-0.7-8.6s-2.9-4.8-2.9-4.8L16,12l0,0
				l4.2,2.5c0,0,1.9,1.4,2.6,0.5C23.4,14.1,21.8,13.3,21.8,13.3z"/>
			<path class="st3" d="M20.5,14.1l-7,12.1c0,0-0.6,1.1-0.2,1.5s1.4-0.1,2.1-1.2c0.6-1.1,6.3-11.7,6.3-11.7L20.5,14.1z"/>
			<path class="st3" d="M12,5.2L12,5.2c0.7,0.3,1,1.1,0.7,1.8l-2.1,4.7c-0.3,0.7-1.1,1-1.8,0.7l0,0c-0.7-0.3-1-1.1-0.7-1.8l2.1-4.7
				C10.5,5.2,11.3,4.9,12,5.2z"/>
		</g>
	</g>
</g>
<g id="Layer_5">
	<g>
		<path class="st5" d="M25.5,0H4.6C2.1,0,0,2,0,4.5v20.9C0,28,2.1,30,4.6,30h20.9c2.5,0,4.6-2.1,4.6-4.6V4.5C30.1,2,28,0,25.5,0z"/>
		<g>
			<circle class="st3" cx="16.1" cy="3.8" r="2"/>
			<path class="st3" d="M21.7,13.3l-4.2-2.9c0,0,0.1-2.9-2.1-4.1s-3.8,2.4-3.8,2.4s-1.5,3.3-1.8,4.5s0.7,3.7,0.7,3.7l-3.1,9
				c0,0-0.5,2.1,0.6,2.4c1.8,0.4,5-9.4,5-9.4l2.3,2l1.2,6.4c0,0,0.4,1,1.9,0.9c1.4-0.1-0.6-8.5-0.7-8.6s-2.9-4.8-2.9-4.8l1.2-2.6
				l0,0l4.2,2.5c0,0,1.9,1.4,2.6,0.5C23.3,14.1,21.7,13.3,21.7,13.3z"/>
			<path class="st3" d="M20.4,14.1l-6.9,12.1c0,0-0.6,1.1-0.2,1.5c0.4,0.3,1.4-0.1,2.1-1.3c0.6-1.1,6.2-11.7,6.2-11.7L20.4,14.1z"/>
			<path class="st3" d="M12,5.2L12,5.2c0.7,0.3,1,1.1,0.7,1.8l-2.1,4.7c-0.3,0.7-1.1,1-1.8,0.7l0,0c-0.7-0.3-1-1.1-0.7-1.8l2.1-4.7
				C10.5,5.2,11.3,4.9,12,5.2z"/>
		</g>
	</g>
</g>
<g id="Layer_6">
	<rect x="37.8" y="-1.4" class="st2" width="5.7" height="7.5"/>
	<rect x="37.8" y="9.9" class="st5" width="5.7" height="7.5"/>
	<rect x="37.8" y="21.2" class="st4" width="5.7" height="7.5"/>
</g>
</svg>
