<svg id="Layer_1" data-name="Layer 1" xmlns="http://www.w3.org/2000/svg" viewBox="0 0 30 30"><defs><style>.cls-1{fill:#009c66;}.cls-2{fill:#fff;}</style></defs><title>Artboard 1</title><path class="cls-1" d="M25.44,0H4.56A4.57,4.57,0,0,0,0,4.58V25.42A4.57,4.57,0,0,0,4.56,30H25.44A4.57,4.57,0,0,0,30,25.42V4.58A4.57,4.57,0,0,0,25.44,0Z"/><ellipse class="cls-2" cx="16.07" cy="3.85" rx="1.97" ry="1.97"/><path class="cls-2" d="M21.7,13.26l-4.19-2.88s.12-2.89-2.14-4.14-3.82,2.41-3.82,2.41a34.84,34.84,0,0,0-1.79,4.46c-.26,1.22.66,3.66.66,3.66l-3.09,9s-.49,2.13.55,2.35c1.76.36,5-9.39,5-9.39l2.32,2L16.43,27A1.77,1.77,0,0,0,18.3,28c1.43-.11-.58-8.45-.71-8.55s-2.91-4.79-2.91-4.79L15.9,12h0l4.17,2.53s1.91,1.4,2.56.51S21.7,13.26,21.7,13.26Z"/><path class="cls-2" d="M20.33,14.09,13.42,26.15s-.63,1.13-.24,1.46,1.43-.12,2.05-1.25,6.23-11.64,6.23-11.64Z"/><path class="cls-2" d="M11.33,5l1.24.56a.7.7,0,0,1,.34.93l-2.7,5.88a.7.7,0,0,1-.93.34L8.05,12.1a.71.71,0,0,1-.35-.93l2.7-5.88A.7.7,0,0,1,11.33,5Z"/></svg>